<?xml version="1.0" encoding="utf-8"?>
<!-- Generator: Adobe Illustrator 17.0.0, SVG Export Plug-In . SVG Version: 6.00 Build 0)  -->
<!DOCTYPE svg PUBLIC "-//W3C//DTD SVG 1.1//EN" "http://www.w3.org/Graphics/SVG/1.1/DTD/svg11.dtd">
<svg version="1.1" id="Layer_1" xmlns="http://www.w3.org/2000/svg" xmlns:xlink="http://www.w3.org/1999/xlink" x="0px" y="0px"
	 width="507.314px" height="90.191px" viewBox="0 0 507.314 90.191" enable-background="new 0 0 507.314 90.191"
	 xml:space="preserve">
<g id="Vrstva_3">
</g>
<g id="Vrstva_1">
	<g>
		<g>
			<g>
				<path fill="#666666" d="M84.909,68.755v-7.976c6.148,1.994,12.363,2.991,18.644,2.991c8.342,0,12.513-2.492,12.513-7.477
					c0-4.653-2.909-6.979-8.724-6.979h-7.477c-11.3,0-16.949-5.151-16.949-15.454c0-9.97,7.26-14.955,21.784-14.955
					c6.248,0,12.444,0.831,18.594,2.492v7.976c-6.15-1.994-12.346-2.991-18.594-2.991c-8.707,0-13.061,2.492-13.061,7.477
					c0,4.653,2.742,6.979,8.226,6.979h7.477c11.964,0,17.946,5.152,17.946,15.454c0,9.97-7.246,14.955-21.735,14.955
					C97.272,71.247,91.057,70.417,84.909,68.755z"/>
				<path fill="#666666" d="M147.97,18.904v52.343h-9.223V18.904H147.97z"/>
				<path fill="#666666" d="M159.493,45.076c0-17.447,8.307-26.172,24.925-26.172c16.617,0,24.925,8.724,24.925,26.172
					c0,17.415-8.308,26.122-24.925,26.122C167.867,71.197,159.559,62.491,159.493,45.076z M184.418,63.77
					c10.469,0,15.703-6.298,15.703-18.893c0-12.329-5.234-18.495-15.703-18.495c-10.469,0-15.703,6.165-15.703,18.495
					C168.715,57.472,173.949,63.77,184.418,63.77z"/>
				<path fill="#666666" d="M247.103,19.178c12.262,1.271,17.666,5.578,17.881,19.219v32.851h-9.223V38.247
					c-0.091-6.338-3.52-10.981-11.169-11.503c-4.877-0.333-10.961-0.261-15.496,1.037l-0.006,43.467h-9.223l-0.024-50.205
					C227.975,18.79,239.357,18.418,247.103,19.178z"/>
				<path fill="#666666" d="M466.935,68.755v-7.976c6.148,1.994,12.363,2.991,18.644,2.991c8.342,0,12.513-2.492,12.513-7.477
					c0-4.653-2.909-6.979-8.724-6.979h-7.477c-11.3,0-16.949-5.151-16.949-15.454c0-9.97,7.26-14.955,21.784-14.955
					c6.248,0,12.444,0.831,18.594,2.492v7.976c-6.15-1.994-12.346-2.991-18.594-2.991c-8.707,0-13.061,2.492-13.061,7.477
					c0,4.653,2.741,6.979,8.226,6.979h7.477c11.964,0,17.946,5.152,17.946,15.454c0,9.97-7.246,14.955-21.735,14.955
					C479.298,71.247,473.084,70.417,466.935,68.755z"/>
				<path fill="#666666" d="M372.688,18.904c-7.411,0-14.59,0.715-21.535,2.144v69.143h9.223v-6.475v-14.96V60.58v-9.019V27.779
					c3.49-0.797,7.559-1.196,12.213-1.196c10.8,0,16.201,5.7,16.201,17.099c0,13.061-5.434,19.591-16.301,19.591
					c-2.243,0-4.372-0.247-6.403-0.704v7.949c2.116,0.462,4.263,0.731,6.453,0.731c16.881,0,25.324-9.155,25.324-27.467
					C397.863,27.197,389.47,18.904,372.688,18.904z"/>
				<path fill="#666666" d="M429.797,18.904c-7.411,0-14.59,0.715-21.535,2.144v69.143h9.223v-6.475v-14.96V60.58v-9.019V27.779
					c3.49-0.797,7.559-1.196,12.213-1.196c10.8,0,16.201,5.7,16.201,17.099c0,13.061-5.434,19.591-16.301,19.591
					c-2.243,0-4.372-0.247-6.403-0.704v7.949c2.116,0.462,4.263,0.731,6.453,0.731c16.881,0,25.324-9.155,25.324-27.467
					C454.971,27.197,446.578,18.904,429.797,18.904z"/>
				<g>
					<rect x="60.211" y="18.904" fill="#666666" width="9.266" height="52.344"/>
				</g>
				<path fill="#666666" d="M0,18.904h9.97l15.005,41.027l14.906-41.027h9.97L28.565,71.247h-8.574L0,18.904z"/>
				<path fill="#666666" d="M307.502,11.65l-23.523,59.598h-11.503L302.719,0h10.214l30.393,71.248h-12.151L307.502,11.65z"/>
			</g>
		</g>
	</g>
</g>
<g id="Vrstva_2" display="none">
</g>
</svg>
