<svg version="1.1" id="Vrstva_1" xmlns="http://www.w3.org/2000/svg" xmlns:xlink="http://www.w3.org/1999/xlink" x="0px" y="0px"
	 width="60px" height="16px" viewBox="0 0 60 16" enable-background="new 0 0 60 16" xml:space="preserve">
<g>
	<g>
		<path fill="#1D1D1B" d="M2.771,11.563c0.654,0,1.139-0.086,1.454-0.258c0.315-0.172,0.473-0.447,0.473-0.826
			c0-0.39-0.155-0.7-0.465-0.929c-0.31-0.229-0.82-0.488-1.532-0.774c-0.344-0.138-0.674-0.278-0.99-0.422
			C1.397,8.21,1.124,8.04,0.895,7.845c-0.23-0.195-0.413-0.43-0.551-0.706C0.207,6.864,0.138,6.526,0.138,6.124
			c0-0.792,0.293-1.42,0.878-1.885s1.382-0.697,2.392-0.697c0.252,0,0.505,0.014,0.757,0.043c0.252,0.029,0.487,0.063,0.706,0.103
			c0.218,0.04,0.41,0.083,0.577,0.129c0.166,0.046,0.295,0.086,0.387,0.121L5.542,5.315C5.37,5.224,5.1,5.129,4.733,5.031
			C4.366,4.934,3.924,4.885,3.408,4.885c-0.447,0-0.838,0.089-1.17,0.267C1.904,5.33,1.738,5.608,1.738,5.986
			c0,0.195,0.037,0.367,0.112,0.516c0.074,0.149,0.189,0.284,0.344,0.405c0.155,0.121,0.347,0.232,0.577,0.336
			C3,7.346,3.276,7.455,3.597,7.57C4.021,7.731,4.4,7.888,4.733,8.043C5.066,8.198,5.35,8.379,5.585,8.585
			C5.82,8.792,6.001,9.041,6.127,9.334c0.126,0.293,0.189,0.651,0.189,1.076c0,0.826-0.307,1.452-0.921,1.876
			c-0.614,0.425-1.489,0.637-2.625,0.637c-0.792,0-1.411-0.066-1.859-0.198C0.465,12.592,0.161,12.492,0,12.423l0.293-1.377
			c0.183,0.069,0.476,0.172,0.878,0.31C1.572,11.494,2.105,11.563,2.771,11.563z"/>
		<path fill="#1D1D1B" d="M6.97,14.385c0.126,0.057,0.29,0.112,0.491,0.163c0.201,0.052,0.398,0.077,0.594,0.077
			c0.631,0,1.124-0.141,1.48-0.422c0.356-0.281,0.677-0.737,0.964-1.368c-0.723-1.377-1.397-2.837-2.022-4.38
			C7.851,6.913,7.332,5.35,6.919,3.766H8.64c0.126,0.516,0.278,1.073,0.456,1.669C9.274,6.032,9.471,6.646,9.69,7.277
			c0.218,0.631,0.453,1.262,0.706,1.893c0.252,0.631,0.516,1.239,0.792,1.824c0.436-1.205,0.815-2.398,1.136-3.58
			c0.321-1.182,0.625-2.398,0.912-3.649h1.652c-0.413,1.687-0.872,3.307-1.377,4.862c-0.505,1.555-1.05,3.009-1.635,4.363
			c-0.23,0.516-0.468,0.961-0.714,1.334c-0.247,0.373-0.519,0.68-0.817,0.921c-0.298,0.241-0.634,0.419-1.007,0.533
			c-0.373,0.115-0.795,0.172-1.265,0.172c-0.126,0-0.258-0.009-0.396-0.026c-0.138-0.017-0.273-0.04-0.404-0.069
			c-0.132-0.029-0.253-0.06-0.361-0.095c-0.109-0.034-0.187-0.063-0.232-0.086L6.97,14.385z"/>
		<path fill="#1D1D1B" d="M16.097,4.025c0.367-0.092,0.855-0.189,1.463-0.293c0.608-0.103,1.308-0.155,2.1-0.155
			c0.711,0,1.302,0.101,1.773,0.301c0.47,0.201,0.846,0.482,1.127,0.843c0.281,0.361,0.479,0.795,0.594,1.299
			c0.115,0.505,0.172,1.061,0.172,1.669v5.025h-1.601V8.034c0-0.551-0.037-1.021-0.112-1.411c-0.075-0.39-0.198-0.706-0.37-0.947
			c-0.172-0.241-0.402-0.416-0.688-0.525c-0.287-0.109-0.643-0.164-1.067-0.164c-0.172,0-0.35,0.006-0.534,0.017
			c-0.184,0.011-0.359,0.026-0.525,0.043c-0.166,0.017-0.316,0.037-0.447,0.06c-0.132,0.023-0.227,0.04-0.284,0.052v7.555h-1.601
			V4.025z"/>
		<path fill="#1D1D1B" d="M24.962,8.258c0-0.792,0.115-1.483,0.344-2.074c0.229-0.591,0.534-1.081,0.912-1.471
			c0.379-0.39,0.815-0.683,1.308-0.878c0.493-0.195,0.998-0.292,1.514-0.292c1.205,0,2.128,0.376,2.771,1.127
			c0.642,0.752,0.964,1.896,0.964,3.433c0,0.069,0,0.158,0,0.267c0,0.109-0.006,0.209-0.017,0.301h-6.127
			c0.069,0.929,0.338,1.635,0.809,2.117c0.47,0.482,1.205,0.723,2.203,0.723c0.562,0,1.035-0.049,1.42-0.146
			c0.384-0.097,0.674-0.192,0.869-0.284l0.224,1.342c-0.195,0.103-0.536,0.212-1.024,0.327c-0.488,0.114-1.041,0.172-1.661,0.172
			c-0.78,0-1.454-0.118-2.022-0.353c-0.568-0.235-1.036-0.559-1.403-0.972c-0.367-0.413-0.64-0.904-0.818-1.471
			C25.051,9.557,24.962,8.935,24.962,8.258z M31.106,7.381c0.011-0.723-0.169-1.317-0.542-1.781
			c-0.373-0.465-0.886-0.697-1.54-0.697c-0.367,0-0.691,0.072-0.972,0.215c-0.281,0.144-0.519,0.33-0.714,0.559
			c-0.195,0.23-0.347,0.493-0.456,0.792c-0.109,0.298-0.181,0.602-0.215,0.912H31.106z"/>
		<path fill="#1D1D1B" d="M37.816,3.577c0.138,0,0.295,0.009,0.473,0.026c0.178,0.017,0.353,0.04,0.525,0.069
			c0.172,0.029,0.33,0.057,0.473,0.086c0.143,0.029,0.25,0.054,0.318,0.077l-0.275,1.394c-0.126-0.046-0.336-0.1-0.628-0.164
			c-0.293-0.063-0.669-0.095-1.127-0.095c-0.298,0-0.594,0.032-0.886,0.095c-0.293,0.063-0.485,0.106-0.577,0.129v7.521h-1.601
			V4.145c0.379-0.138,0.849-0.267,1.411-0.387C36.485,3.637,37.116,3.577,37.816,3.577z"/>
		<path fill="#1D1D1B" d="M46.127,11.821c-0.138,0.092-0.404,0.209-0.8,0.353c-0.396,0.144-0.858,0.215-1.385,0.215
			c-0.54,0-1.047-0.086-1.523-0.258c-0.476-0.172-0.892-0.439-1.248-0.8c-0.356-0.362-0.637-0.812-0.843-1.351
			c-0.206-0.539-0.31-1.182-0.31-1.928c0-0.654,0.097-1.253,0.293-1.798c0.195-0.545,0.479-1.015,0.852-1.411
			c0.373-0.396,0.829-0.706,1.368-0.929c0.539-0.224,1.147-0.336,1.824-0.336c0.746,0,1.397,0.055,1.953,0.164
			c0.556,0.109,1.024,0.21,1.403,0.301v7.986c0,1.377-0.356,2.375-1.067,2.994c-0.711,0.62-1.79,0.929-3.236,0.929
			c-0.562,0-1.093-0.046-1.592-0.138c-0.499-0.092-0.932-0.201-1.299-0.327l0.293-1.394c0.321,0.126,0.714,0.238,1.179,0.336
			c0.465,0.097,0.949,0.146,1.454,0.146c0.952,0,1.638-0.189,2.057-0.568c0.419-0.379,0.628-0.981,0.628-1.807V11.821z M46.11,5.178
			c-0.161-0.046-0.376-0.089-0.645-0.129c-0.27-0.04-0.634-0.06-1.093-0.06c-0.861,0-1.523,0.281-1.988,0.843
			c-0.465,0.562-0.697,1.308-0.697,2.237c0,0.516,0.066,0.958,0.198,1.325c0.132,0.367,0.31,0.671,0.533,0.912
			c0.224,0.241,0.482,0.419,0.774,0.533c0.293,0.115,0.594,0.172,0.904,0.172c0.424,0,0.815-0.06,1.17-0.181
			c0.356-0.121,0.637-0.261,0.843-0.422V5.178z"/>
		<path fill="#1D1D1B" d="M50.71,2.149c-0.287,0-0.531-0.095-0.731-0.284c-0.201-0.189-0.301-0.445-0.301-0.766
			c0-0.321,0.1-0.577,0.301-0.766c0.201-0.189,0.445-0.284,0.731-0.284c0.287,0,0.531,0.095,0.731,0.284
			c0.201,0.189,0.301,0.445,0.301,0.766c0,0.321-0.101,0.576-0.301,0.766C51.24,2.054,50.997,2.149,50.71,2.149z M51.519,12.716
			h-1.601V3.766h1.601V12.716z"/>
		<path fill="#1D1D1B" d="M57.608,12.922c-0.723,0-1.357-0.115-1.902-0.344c-0.545-0.229-1.004-0.551-1.377-0.964
			c-0.373-0.413-0.651-0.904-0.835-1.471c-0.184-0.568-0.275-1.196-0.275-1.885s0.1-1.319,0.301-1.893
			c0.201-0.574,0.485-1.07,0.852-1.489c0.367-0.419,0.817-0.746,1.351-0.981c0.533-0.235,1.127-0.353,1.781-0.353
			c0.402,0,0.803,0.034,1.205,0.103c0.402,0.069,0.786,0.178,1.153,0.327l-0.362,1.359c-0.241-0.114-0.519-0.207-0.835-0.275
			c-0.316-0.069-0.651-0.103-1.007-0.103c-0.895,0-1.581,0.281-2.057,0.843c-0.476,0.562-0.714,1.383-0.714,2.461
			c0,0.482,0.054,0.924,0.164,1.325c0.109,0.402,0.281,0.746,0.516,1.033c0.235,0.287,0.536,0.508,0.904,0.663
			c0.367,0.155,0.814,0.232,1.342,0.232c0.424,0,0.809-0.04,1.153-0.121c0.344-0.08,0.614-0.166,0.809-0.258L60,12.475
			c-0.092,0.058-0.224,0.112-0.396,0.164c-0.172,0.052-0.367,0.097-0.585,0.138c-0.218,0.04-0.45,0.074-0.697,0.103
			C58.075,12.908,57.837,12.922,57.608,12.922z"/>
	</g>
</g>
</svg>
